<svg width="1200" height="630" viewBox="0 0 1200 630" xmlns="http://www.w3.org/2000/svg">
  <rect width="1200" height="630" fill="#0f172a"/>
  <circle cx="1020" cy="140" r="210" fill="#1e293b" opacity="0.8"/>
  <circle cx="180" cy="530" r="140" fill="#1e293b" opacity="0.6"/>
  <circle cx="1020" cy="140" r="120" fill="#1d4ed8" opacity="0.15"/>
  <ellipse cx="1020" cy="130" rx="80" ry="32" fill="#334155" stroke="#475569" stroke-width="1.5"/>
  <ellipse cx="1020" cy="120" rx="80" ry="32" fill="#1e293b" stroke="#475569" stroke-width="2.5"/>
  <ellipse cx="1020" cy="120" rx="60" ry="20" fill="none" stroke="#64748b" stroke-width="1.5" opacity="0.5"/>
  <line x1="930" y1="50" x2="1005" y2="165" stroke="#334155" stroke-width="10" stroke-linecap="round"/>
  <line x1="1005" y1="165" x2="1060" y2="175" stroke="#334155" stroke-width="10" stroke-linecap="round"/>
  <rect x="70" y="90" width="490" height="48" rx="24" fill="#1e3a5f"/>
  <text x="315" y="122" text-anchor="middle" font-family="Arial,sans-serif" font-size="18" font-weight="600" letter-spacing="3" fill="#60a5fa">НАВИГАТОР ХОККЕЙНЫХ СЕРВИСОВ РОССИИ</text>
  <text x="70" y="285" font-family="Arial,sans-serif" font-size="128" font-weight="900" letter-spacing="6" fill="white">HOCKEY</text>
  <text x="775" y="285" font-family="Arial,sans-serif" font-size="128" font-weight="900" letter-spacing="6" fill="#60a5fa">MAP</text>
  <text x="70" y="335" font-family="Arial,sans-serif" font-size="28" fill="#94a3b8">Магазины · Заточка · Мастерские · Тренеры · Школы</text>
  <line x1="70" y1="390" x2="1130" y2="390" stroke="#1e293b" stroke-width="1.5"/>
  <rect x="70" y="410" width="160" height="44" rx="22" fill="#1e293b"/>
  <text x="150" y="437" text-anchor="middle" font-family="Arial,sans-serif" font-size="20" fill="#94a3b8">Москва</text>
  <rect x="245" y="410" width="230" height="44" rx="22" fill="#1e293b"/>
  <text x="360" y="437" text-anchor="middle" font-family="Arial,sans-serif" font-size="20" fill="#94a3b8">Санкт-Петербург</text>
  <rect x="490" y="410" width="215" height="44" rx="22" fill="#1e293b"/>
  <text x="597" y="437" text-anchor="middle" font-family="Arial,sans-serif" font-size="20" fill="#94a3b8">Екатеринбург</text>
  <rect x="720" y="410" width="140" height="44" rx="22" fill="#1e293b"/>
  <text x="790" y="437" text-anchor="middle" font-family="Arial,sans-serif" font-size="20" fill="#94a3b8">Казань</text>
  <rect x="875" y="410" width="175" height="44" rx="22" fill="#1e293b"/>
  <text x="962" y="437" text-anchor="middle" font-family="Arial,sans-serif" font-size="20" fill="#94a3b8">и ещё 44...</text>
  <text x="70" y="560" font-family="Arial,sans-serif" font-size="24" fill="#475569">hockeymap.ru</text>
  <text x="1130" y="560" text-anchor="end" font-family="Arial,sans-serif" font-size="22" fill="#475569">127 мест в базе</text>
</svg>